<svg id="Layer_1" data-name="Layer 1" xmlns="http://www.w3.org/2000/svg" viewBox="0 0 1215.01 213.76"><defs><style>.cls-1{fill:#ffcb06;}.cls-2{fill:#fff;}</style></defs><polygon class="cls-1" points="54.13 107.05 88.44 48.28 123.25 48.15 123.25 0 61.2 0.26 0 107.24 62.05 213.76 123.25 213.53 123.25 166.91 88.94 166.91 54.13 107.05"/><polygon class="cls-1" points="192.51 107.05 158.12 166.91 123.24 166.91 123.24 48.15 157.65 48.15 192.51 107.05"/><path class="cls-2" d="M327.24,95.15C299.5,91.07,293.46,88,293.46,81.77s7.84-11.42,26.28-11.42c14.51,0,29.53,3.59,42.74,9,3.44,1.32,6.54,2.78,9.64,4.25V56.42a6.92,6.92,0,0,0-.65-.27c-14.53-6.21-29.87-9.46-50.11-9.46-36.06,0-59.89,16.15-59.89,36.71,0,22.85,19.27,31,57.29,36.39,26.75,3.76,33.29,6.69,33.29,13.38,0,7.52-9.79,12.41-31.5,12.41-14,0-30.64-3.86-44.89-9.63a129.39,129.39,0,0,1-12-5.63v27.17c1.13.49,2.26,1,3.07,1.3A145.62,145.62,0,0,0,322,169.24c35.09,0,62.18-14.19,62.18-37.53C384.19,108.87,366.07,100.69,327.24,95.15Z"/><path class="cls-2" d="M615.59,166.94H584.78V49H662c32.4,0,49.58,14.35,49.58,38.61,0,19.13-12.57,31.7-31,36.66l36.84,42.68H682.18L648,126.56H615.59Zm0-63.22h39c17.18,0,25.85-5.14,25.85-15.59,0-9.92-7.08-15.41-24.44-15.41H615.59Z"/><path class="cls-2" d="M855.92,145.87H788.27l-10.45,21.07H745.76l60-118.66h33.65l60.21,118.66H866.37Zm-57-21.61h46.4l-23-46.93h-.35Z"/><path class="cls-2" d="M1160.12,145.87h-67.66L1082,166.94H1050l60-118.66h33.65l60.21,118.66h-33.3Zm-57-21.61h46.4l-23-46.93h-.36Z"/><polygon class="cls-2" points="1190.34 48.77 1200.15 48.77 1200.15 51.27 1196.78 51.27 1196.78 61.04 1193.7 61.04 1193.7 51.27 1190.34 51.27 1190.34 48.77"/><path class="cls-2" d="M1215,48.77V61h-2.75V54c0-.11,0-.23,0-.36l-2.84,5.5a1.1,1.1,0,0,1-.46.49,1.29,1.29,0,0,1-.65.17H1208a1.29,1.29,0,0,1-.65-.17,1.1,1.1,0,0,1-.46-.49L1204,53.61a2.75,2.75,0,0,1,0,.39v7h-2.76V48.77h2.6a1.24,1.24,0,0,1,.29.06.63.63,0,0,1,.24.17,1,1,0,0,1,.2.27l3.08,6.07c.11.22.22.44.32.66l.15.35a2.75,2.75,0,0,0,.15-.36,7,7,0,0,1,.34-.67l3.07-6a1.36,1.36,0,0,1,.19-.27.59.59,0,0,1,.25-.17,1.14,1.14,0,0,1,.29-.06Z"/><polygon class="cls-2" points="909.96 73.88 959.74 73.88 959.74 166.91 992.71 166.91 992.71 73.88 1042.49 73.88 1042.49 48.44 909.96 48.44 909.96 73.88"/><polygon class="cls-2" points="411.43 73.88 461.22 73.88 461.22 166.91 494.18 166.91 494.18 73.88 543.96 73.88 543.96 48.44 411.43 48.44 411.43 73.88"/></svg>